<svg width="32" height="32" viewBox="0 0 24 24" fill="none" xmlns="http://www.w3.org/2000/svg">
  <rect width="24" height="24" rx="6" fill="#059669"/>
  <path d="M12 18.5C15.5899 18.5 18.5 15.5899 18.5 12C18.5 8.41015 15.5899 5.5 12 5.5C8.41015 5.5 5.5 8.41015 5.5 12C5.5 15.5899 8.41015 18.5 12 18.5Z" stroke="white" stroke-width="2" stroke-linecap="round"/>
  <path d="M10 10.5C10 10.5 10.4 9.7 12 9.7C13.6 9.7 14 10.5 14 10.5C14 10.5 14 11.7 13.1 12.5C12.2 13.3 12 14.5 12 14.5" stroke="white" stroke-width="2" stroke-linecap="round"/>
  <circle cx="12" cy="16.5" r="1" fill="white"/>
</svg>
